<svg xmlns="http://www.w3.org/2000/svg" viewBox="0 0 64 64">
  <rect width="64" height="64" rx="12" fill="#070a13"/>
  <path d="M16 8 C13 18 11 22 11 34 C11 48 20 58 32 58 C44 58 53 48 53 34 C53 22 51 18 48 8 C43 12 38 14 32 14 C26 14 21 12 16 8 Z" fill="none" stroke="#4c8dff" stroke-width="5" stroke-linejoin="round"/>
  <circle cx="23.5" cy="30" r="7.5" fill="#4c8dff"/>
  <circle cx="40.5" cy="30" r="7.5" fill="#4c8dff"/>
  <circle cx="23.5" cy="30" r="3" fill="#070a13"/>
  <circle cx="40.5" cy="30" r="3" fill="#070a13"/>
  <path d="M32 34 L27.5 41.5 L36.5 41.5 Z" fill="#4c8dff"/>
  <path d="M24 45 L32 50 L40 45" fill="none" stroke="#4c8dff" stroke-width="2.5" opacity="0.6" stroke-linecap="round" stroke-linejoin="round"/>
  <path d="M27 51 L32 54.5 L37 51" fill="none" stroke="#4c8dff" stroke-width="2.5" opacity="0.6" stroke-linecap="round" stroke-linejoin="round"/>
</svg>
